<svg width="189" height="60" viewBox="0 0 189 60" fill="none" xmlns="http://www.w3.org/2000/svg">
<path fill-rule="evenodd" clip-rule="evenodd" d="M7.94061 33.2708C9.31106 33.2708 10.6507 33.6771 11.7902 34.4385C12.9297 35.1999 13.8178 36.2821 14.3423 37.5482C14.8667 38.8144 15.004 40.2076 14.7366 41.5517C14.4692 42.8958 13.8093 44.1305 12.8402 45.0995C11.8712 46.0686 10.6365 46.7285 9.29242 46.9959C7.9483 47.2632 6.55508 47.126 5.28894 46.6016C4.02281 46.0771 2.94063 45.189 2.17924 44.0495C1.41786 42.91 1.01147 41.5703 1.01147 40.1999C1.01147 39.2899 1.1907 38.3889 1.53892 37.5482C1.88715 36.7075 2.39754 35.9437 3.04097 35.3002C3.6844 34.6568 4.44826 34.1464 5.28894 33.7982C6.12962 33.45 7.03066 33.2708 7.94061 33.2708ZM7.94061 36.4506C8.68239 36.4494 9.40787 36.6683 10.0252 37.0796C10.6426 37.4908 11.1241 38.0759 11.4088 38.7609C11.6935 39.4459 11.7686 40.1999 11.6246 40.9276C11.4806 41.6553 11.124 42.3239 10.5999 42.8489C10.0758 43.3738 9.40778 43.7315 8.68034 43.8766C7.95289 44.0218 7.19873 43.9479 6.51329 43.6643C5.82786 43.3807 5.24195 42.9002 4.82971 42.2835C4.41747 41.6668 4.19742 40.9417 4.19742 40.1999C4.19742 39.2066 4.5916 38.2539 5.29341 37.5509C5.99522 36.848 6.9473 36.4522 7.94061 36.4506Z" fill="#C7C6C6"/>
<path fill-rule="evenodd" clip-rule="evenodd" d="M7.94061 13.1678C9.31106 13.1678 10.6507 13.5742 11.7902 14.3355C12.9297 15.0969 13.8178 16.1791 14.3423 17.4452C14.8667 18.7114 15.004 20.1046 14.7366 21.4487C14.4692 22.7928 13.8093 24.0275 12.8402 24.9965C11.8712 25.9656 10.6365 26.6255 9.29242 26.8929C7.9483 27.1603 6.55508 27.023 5.28894 26.4986C4.02281 25.9741 2.94063 25.086 2.17924 23.9465C1.41786 22.807 1.01147 21.4674 1.01147 20.0969C1.01147 18.2592 1.74151 16.4967 3.04097 15.1973C4.34044 13.8978 6.10289 13.1678 7.94061 13.1678ZM7.94061 16.3537C8.68094 16.3537 9.40465 16.5733 10.0202 16.9846C10.6358 17.3959 11.1155 17.9805 11.3989 18.6644C11.6822 19.3484 11.7563 20.1011 11.6119 20.8272C11.4674 21.5533 11.1109 22.2202 10.5874 22.7437C10.0639 23.2672 9.39697 23.6237 8.67087 23.7682C7.94476 23.9126 7.19213 23.8385 6.50815 23.5552C5.82418 23.2718 5.23957 22.7921 4.82826 22.1765C4.41696 21.5609 4.19742 20.8372 4.19742 20.0969C4.19742 19.1041 4.59179 18.1521 5.29378 17.4501C5.99576 16.7481 6.94785 16.3537 7.94061 16.3537Z" fill="#C7C6C6"/>
<path fill-rule="evenodd" clip-rule="evenodd" d="M42.7499 13.1678C44.1206 13.1666 45.4608 13.5719 46.6011 14.3326C47.7414 15.0933 48.6305 16.175 49.1559 17.441C49.6812 18.7071 49.8193 20.1005 49.5526 21.445C49.286 22.7895 48.6265 24.0247 47.6577 24.9944C46.6889 25.9641 45.4542 26.6246 44.11 26.8925C42.7657 27.1603 41.3721 27.0234 40.1057 26.4992C38.8392 25.9749 37.7566 25.0868 36.995 23.9472C36.2333 22.8075 35.8268 21.4676 35.8268 20.0969C35.8268 18.2602 36.556 16.4987 37.8541 15.1994C39.1523 13.9001 40.9132 13.1694 42.7499 13.1678ZM42.7499 16.3537C43.4902 16.3537 44.2139 16.5733 44.8295 16.9846C45.445 17.3959 45.9248 17.9805 46.2081 18.6645C46.4914 19.3484 46.5655 20.1011 46.4211 20.8272C46.2767 21.5533 45.9202 22.2202 45.3967 22.7437C44.8732 23.2672 44.2062 23.6237 43.4801 23.7682C42.754 23.9126 42.0014 23.8385 41.3174 23.5552C40.6334 23.2718 40.0488 22.7921 39.6375 22.1765C39.2262 21.5609 39.0067 20.8372 39.0067 20.0969C39.0083 19.1046 39.4032 18.1535 40.1048 17.4518C40.8064 16.7502 41.7576 16.3553 42.7499 16.3537Z" fill="#C7C6C6"/>
<path fill-rule="evenodd" clip-rule="evenodd" d="M25.3483 3.11932C26.7188 3.11932 28.0585 3.52571 29.1979 4.28709C30.3374 5.04848 31.2256 6.13066 31.75 7.39679C32.2745 8.66293 32.4117 10.0561 32.1443 11.4003C31.877 12.7444 31.217 13.979 30.248 14.9481C29.2789 15.9172 28.0443 16.5771 26.7001 16.8445C25.356 17.1118 23.9628 16.9746 22.6967 16.4501C21.4305 15.9257 20.3483 15.0376 19.587 13.8981C18.8256 12.7586 18.4192 11.4189 18.4192 10.0485C18.4192 8.21074 19.1492 6.44828 20.4487 5.14882C21.7482 3.84936 23.5106 3.11932 25.3483 3.11932ZM25.3483 6.30527C26.0884 6.30647 26.8115 6.52702 27.4263 6.93905C28.041 7.35109 28.5199 7.93611 28.8023 8.62019C29.0846 9.30428 29.1579 10.0567 29.0128 10.7824C28.8677 11.5081 28.5107 12.1745 27.987 12.6974C27.4632 13.2203 26.7962 13.5762 26.0703 13.7202C25.3444 13.8641 24.592 13.7896 23.9084 13.5061C23.2248 13.2226 22.6405 12.7429 22.2295 12.1274C21.8185 11.512 21.5991 10.7885 21.5991 10.0485C21.5991 9.55639 21.6961 9.06914 21.8846 8.6146C22.0731 8.16006 22.3493 7.74715 22.6976 7.39948C23.0458 7.05182 23.4592 6.77622 23.914 6.58846C24.3689 6.40071 24.8563 6.30448 25.3483 6.30527Z" fill="#C7C6C6"/>
<path fill-rule="evenodd" clip-rule="evenodd" d="M25.3482 43.3192C26.7177 43.3192 28.0564 43.725 29.1953 44.4853C30.3343 45.2456 31.2224 46.3264 31.7476 47.5911C32.2727 48.8558 32.4114 50.2478 32.146 51.5913C31.8806 52.9347 31.223 54.1694 30.2564 55.1394C29.2897 56.1094 28.0574 56.7713 26.7148 57.0414C25.3723 57.3115 23.9799 57.1777 22.7133 56.657C21.4468 56.1362 20.3629 55.2519 19.5986 54.1156C18.8344 52.9793 18.4239 51.642 18.4191 50.2726C18.4159 49.3606 18.5928 48.457 18.9396 47.6135C19.2864 46.77 19.7963 46.0033 20.44 45.3573C21.0838 44.7113 21.8487 44.1987 22.691 43.849C23.5332 43.4992 24.4363 43.3192 25.3482 43.3192ZM25.3482 46.5052C26.0873 46.5064 26.8094 46.7263 27.4237 47.1373C28.0379 47.5483 28.5167 48.1319 28.7998 48.8145C29.0829 49.4972 29.1576 50.2484 29.0144 50.9735C28.8712 51.6985 28.5166 52.3649 27.9953 52.8888C27.474 53.4126 26.8093 53.7704 26.085 53.9171C25.3606 54.0637 24.6091 53.9927 23.925 53.7129C23.241 53.4332 22.6551 52.9571 22.2412 52.3449C21.8272 51.7327 21.6038 51.0116 21.599 50.2726C21.599 49.7805 21.696 49.2933 21.8845 48.8387C22.073 48.3842 22.3493 47.9713 22.6975 47.6236C23.0457 47.2759 23.4591 47.0003 23.9139 46.8126C24.3688 46.6248 24.8562 46.5286 25.3482 46.5294V46.5052Z" fill="#C7C6C6"/>
<path fill-rule="evenodd" clip-rule="evenodd" d="M42.7499 33.2708C44.1206 33.2696 45.4608 33.6749 46.6011 34.4356C47.7414 35.1962 48.6305 36.278 49.1559 37.544C49.6812 38.8101 49.8193 40.2035 49.5526 41.548C49.286 42.8925 48.6265 44.1277 47.6577 45.0974C46.6889 46.067 45.4542 46.7276 44.11 46.9954C42.7657 47.2633 41.3721 47.1264 40.1057 46.6021C38.8392 46.0779 37.7566 45.1898 36.995 44.0501C36.2333 42.9105 35.8268 41.5706 35.8268 40.1999C35.8268 38.3632 36.556 36.6017 37.8541 35.3024C39.1523 34.0031 40.9132 33.2724 42.7499 33.2708ZM42.7499 36.4506C43.4916 36.4494 44.2171 36.6683 44.8345 37.0796C45.4518 37.4908 45.9333 38.0759 46.218 38.7609C46.5027 39.4459 46.5778 40.1999 46.4339 40.9276C46.2899 41.6553 45.9333 42.3239 45.4092 42.8489C44.8851 43.3738 44.217 43.7315 43.4896 43.8766C42.7621 44.0218 42.008 43.9479 41.3225 43.6643C40.6371 43.3807 40.0512 42.9002 39.639 42.2835C39.2267 41.6668 39.0067 40.9417 39.0067 40.1999C39.0067 39.2066 39.4008 38.2539 40.1027 37.5509C40.8045 36.848 41.7565 36.4523 42.7499 36.4506Z" fill="#C7C6C6"/>
<path fill-rule="evenodd" clip-rule="evenodd" d="M21.6172 21.5203C22.0463 21.5191 22.4661 21.6452 22.8235 21.8828C23.1809 22.1203 23.4598 22.4585 23.6248 22.8547C23.7899 23.2508 23.8337 23.687 23.7507 24.108C23.6677 24.529 23.4617 24.9159 23.1586 25.2198C22.8556 25.5237 22.4693 25.7308 22.0485 25.8149C21.6277 25.8991 21.1914 25.8565 20.7948 25.6926C20.3983 25.5286 20.0592 25.2507 19.8207 24.894C19.5822 24.5373 19.4548 24.1178 19.4548 23.6887C19.454 23.4042 19.5094 23.1224 19.6177 22.8593C19.726 22.5963 19.8852 22.3572 20.086 22.1558C20.2869 21.9543 20.5255 21.7945 20.7883 21.6855C21.051 21.5764 21.3327 21.5203 21.6172 21.5203Z" fill="#F07F1A"/>
<path fill-rule="evenodd" clip-rule="evenodd" d="M29.0733 21.5203C29.5025 21.5191 29.9223 21.6452 30.2797 21.8828C30.6371 22.1203 30.9159 22.4585 31.081 22.8547C31.246 23.2508 31.2898 23.687 31.2069 24.108C31.1239 24.529 30.9178 24.9159 30.6148 25.2198C30.3118 25.5237 29.9255 25.7308 29.5047 25.8149C29.0839 25.8991 28.6476 25.8565 28.251 25.6926C27.8544 25.5286 27.5154 25.2507 27.2769 24.894C27.0383 24.5373 26.911 24.1178 26.911 23.6887C26.9102 23.4042 26.9656 23.1224 27.0739 22.8593C27.1822 22.5963 27.3413 22.3572 27.5422 22.1558C27.7431 21.9543 27.9817 21.7945 28.2445 21.6855C28.5072 21.5764 28.7889 21.5203 29.0733 21.5203Z" fill="#F07F1A"/>
<path fill-rule="evenodd" clip-rule="evenodd" d="M32.8105 27.983C33.2379 27.9842 33.6553 28.1121 34.0101 28.3504C34.3649 28.5887 34.6411 28.9269 34.8039 29.3221C34.9666 29.7173 35.0086 30.1519 34.9245 30.5709C34.8403 30.99 34.6339 31.3747 34.3313 31.6765C34.0286 31.9783 33.6433 32.1836 33.224 32.2666C32.8048 32.3495 32.3703 32.3063 31.9755 32.1425C31.5808 31.9787 31.2434 31.7015 31.0061 31.3461C30.7688 30.9906 30.6421 30.5728 30.6421 30.1454C30.6421 29.8609 30.6982 29.5792 30.8073 29.3165C30.9163 29.0537 31.0761 28.8151 31.2776 28.6142C31.479 28.4134 31.7181 28.2542 31.9811 28.1459C32.2442 28.0376 32.526 27.9822 32.8105 27.983Z" fill="#F07F1A"/>
<path fill-rule="evenodd" clip-rule="evenodd" d="M29.0733 34.4458C29.5007 34.447 29.9182 34.5748 30.273 34.8131C30.6278 35.0515 30.904 35.3896 31.0667 35.7848C31.2294 36.18 31.2714 36.6146 31.1873 37.0337C31.1032 37.4527 30.8967 37.8374 30.5941 38.1392C30.2914 38.441 29.9061 38.6464 29.4869 38.7293C29.0676 38.8123 28.6331 38.7691 28.2384 38.6052C27.8436 38.4414 27.5062 38.1643 27.2689 37.8088C27.0316 37.4533 26.9049 37.0355 26.9049 36.6081C26.9049 36.3236 26.961 36.042 27.0701 35.7792C27.1791 35.5165 27.3389 35.2778 27.5404 35.077C27.7418 34.8761 27.9809 34.7169 28.2439 34.6086C28.507 34.5003 28.7888 34.445 29.0733 34.4458Z" fill="#F07F1A"/>
<path fill-rule="evenodd" clip-rule="evenodd" d="M21.6172 34.4458C22.0448 34.4458 22.4629 34.5726 22.8185 34.8102C23.1741 35.0478 23.4512 35.3855 23.6149 35.7806C23.7786 36.1758 23.8214 36.6105 23.7379 37.03C23.6545 37.4494 23.4486 37.8347 23.1462 38.1371C22.8437 38.4395 22.4585 38.6455 22.039 38.7289C21.6196 38.8123 21.1848 38.7695 20.7897 38.6059C20.3946 38.4422 20.0569 38.165 19.8193 37.8095C19.5817 37.4539 19.4548 37.0358 19.4548 36.6081C19.4548 36.0346 19.6827 35.4846 20.0882 35.0791C20.4937 34.6736 21.0437 34.4458 21.6172 34.4458Z" fill="#F07F1A"/>
<path fill-rule="evenodd" clip-rule="evenodd" d="M17.8861 27.983C18.3148 27.9782 18.7352 28.101 19.094 28.3356C19.4528 28.5703 19.7337 28.9063 19.9011 29.301C20.0684 29.6956 20.1147 30.1311 20.0341 30.5522C19.9534 30.9732 19.7494 31.3608 19.448 31.6656C19.1465 31.9704 18.7613 32.1788 18.3412 32.2642C17.9211 32.3496 17.4851 32.3082 17.0886 32.1453C16.6921 31.9824 16.3529 31.7053 16.1142 31.3492C15.8755 30.9931 15.7481 30.5741 15.748 30.1454C15.748 29.5719 15.9759 29.0219 16.3814 28.6164C16.7869 28.2109 17.3369 27.983 17.9104 27.983H17.8861Z" fill="#F07F1A"/>
<path d="M73.6341 37.6015C73.6547 37.0208 73.5748 36.4409 73.3979 35.8874C73.2603 35.4888 72.9884 35.1504 72.6287 34.9304C72.1892 34.6918 71.704 34.5494 71.2053 34.5124C70.5996 34.4579 69.897 34.4276 69.0309 34.4276H64.9848C64.2156 34.4276 63.5675 34.4276 63.0405 34.4943C62.5977 34.523 62.1613 34.6148 61.7444 34.7668C61.4269 34.8877 61.1512 35.0981 60.9509 35.3725C60.7422 35.6821 60.6037 36.0335 60.5451 36.4022C60.4512 36.9219 60.4025 37.4488 60.3997 37.977C60.3997 38.5948 60.3997 39.3398 60.3997 40.212C60.3997 41.0781 60.3997 41.8232 60.3997 42.441C60.401 42.9695 60.4517 43.4967 60.5511 44.0158C60.6052 44.3847 60.7419 44.7367 60.9509 45.0454C61.1451 45.3233 61.42 45.5347 61.7383 45.6511C62.154 45.8084 62.5909 45.9023 63.0345 45.9298C63.5614 45.9782 64.2095 45.9964 64.9788 45.9964H69.049C69.7213 45.9964 70.3028 45.9964 70.7874 45.9419C71.1965 45.9168 71.6022 45.8519 71.9988 45.748C72.2986 45.6727 72.5805 45.5389 72.8285 45.3543C73.0369 45.1933 73.2049 44.9859 73.3192 44.7486C73.4483 44.4587 73.5301 44.1499 73.5614 43.8341C73.6059 43.4156 73.6262 42.995 73.622 42.5742H75.3603C75.3611 43.097 75.3247 43.6192 75.2513 44.1369C75.187 44.5587 75.0561 44.9675 74.8637 45.3483C74.6849 45.7073 74.4357 46.0266 74.1308 46.2871C73.7863 46.5743 73.3922 46.796 72.9679 46.9413C72.4237 47.1261 71.8612 47.252 71.2901 47.3168C70.5361 47.4024 69.7776 47.4429 69.0187 47.4379H64.9727C64.0784 47.4496 63.1848 47.3847 62.3016 47.2441C61.6764 47.1433 61.0724 46.9386 60.5148 46.6384C60.0748 46.4054 59.7 46.066 59.4246 45.6511C59.1561 45.2221 58.9673 44.7481 58.8673 44.252C58.7426 43.654 58.6737 43.0457 58.6614 42.4349C58.6614 41.7626 58.6614 41.0176 58.6614 40.1999C58.6614 39.3822 58.6614 38.6372 58.6614 37.9588C58.6737 37.3481 58.7426 36.7398 58.8673 36.1417C58.9673 35.6456 59.1561 35.1716 59.4246 34.7426C59.7 34.3277 60.0748 33.9884 60.5148 33.7553C61.0724 33.4551 61.6764 33.2504 62.3016 33.1496C63.1848 33.009 64.0784 32.9441 64.9727 32.9558H69.049C69.8079 32.9509 70.5663 32.9913 71.3204 33.0769C71.8907 33.143 72.4528 33.2668 72.9981 33.4464C73.4183 33.5787 73.8119 33.7837 74.1611 34.0521C74.4632 34.2985 74.7125 34.6034 74.894 34.9485C75.0868 35.312 75.2178 35.705 75.2816 36.1115C75.3548 36.5885 75.3912 37.0704 75.3906 37.553L73.6341 37.6015ZM77.1593 41.8413C77.1399 40.943 77.2647 40.0473 77.5287 39.1884C77.7216 38.5516 78.0938 37.9839 78.6008 37.553C79.1736 37.1108 79.8448 36.8137 80.5572 36.6869C82.5037 36.3563 84.492 36.3563 86.4385 36.6869C87.1636 36.808 87.8479 37.1054 88.4312 37.553C88.9491 37.9839 89.33 38.5564 89.5275 39.2005C89.7802 40.051 89.8967 40.9362 89.8728 41.8232C89.8958 42.728 89.7793 43.6309 89.5275 44.5003C89.3302 45.153 88.9497 45.7353 88.4312 46.1781C87.8553 46.6274 87.1804 46.9327 86.4627 47.0685C84.5177 47.4158 82.5265 47.4158 80.5814 47.0685C79.8637 46.9327 79.1888 46.6274 78.6129 46.1781C78.0969 45.7304 77.7206 45.1438 77.5287 44.4882C77.277 43.6188 77.1605 42.7159 77.1835 41.811L77.1593 41.8413ZM78.8976 41.8413C78.8976 42.447 78.8976 42.9134 78.9582 43.3313C78.9891 43.7054 79.0685 44.074 79.1944 44.4276C79.2996 44.7096 79.4697 44.9627 79.6911 45.1666C79.9286 45.3771 80.21 45.5323 80.5148 45.6208C80.9222 45.7479 81.3429 45.8272 81.7686 45.8571C82.2531 45.8995 82.8346 45.9176 83.5069 45.9176C84.1126 45.9176 84.6032 45.9176 85.0514 45.8752C85.4608 45.8609 85.8673 45.8 86.2628 45.6935C86.5751 45.6103 86.8703 45.473 87.135 45.2877C87.3918 45.0995 87.5995 44.8523 87.7407 44.5669C87.9022 44.2112 88.0104 43.8337 88.0617 43.4464C88.1383 42.9149 88.1727 42.3782 88.1647 41.8413C88.1729 41.3165 88.1385 40.7918 88.0617 40.2726C88.0108 39.8969 87.9025 39.5312 87.7407 39.1884C87.5959 38.9121 87.3885 38.6736 87.135 38.4918C86.8701 38.3123 86.5745 38.1829 86.2628 38.1102C85.8664 38.0105 85.4601 37.9556 85.0514 37.9467C84.6032 37.9225 84.0884 37.9104 83.5069 37.9104C82.9012 37.9104 82.4167 37.9104 81.9685 37.9467C81.5598 37.9556 81.1535 38.0105 80.7571 38.1102C80.4454 38.1829 80.1498 38.3123 79.8849 38.4918C79.6314 38.6736 79.424 38.9121 79.2792 39.1884C79.1174 39.5312 79.0091 39.8969 78.9582 40.2726C78.8814 40.7918 78.847 41.3165 78.8552 41.8413H78.8976ZM102.611 47.1533V41.3447C102.62 40.7979 102.571 40.2518 102.465 39.7153C102.39 39.3083 102.189 38.9353 101.89 38.6493C101.55 38.3393 101.13 38.1297 100.678 38.0436C99.9925 37.9077 99.2938 37.8468 98.5948 37.8619C97.8223 37.8449 97.0503 37.914 96.2931 38.0679C95.787 38.1677 95.308 38.3742 94.8879 38.6735C94.5656 38.8981 94.3186 39.2148 94.1793 39.5821C94.0408 39.9705 93.975 40.3812 93.9854 40.7935V47.123H92.2471V36.7353H93.9854V38.4555C94.108 38.1652 94.2919 37.9049 94.5245 37.6923C94.764 37.4767 95.0308 37.2934 95.318 37.1472C95.6231 36.9971 95.9414 36.8754 96.2689 36.7838C96.6141 36.6929 96.9533 36.6202 97.2925 36.5657C97.6317 36.5112 97.9709 36.487 98.2919 36.4628C98.6129 36.4385 98.8976 36.4628 99.1702 36.4628C99.8353 36.4549 100.5 36.5035 101.157 36.6081C101.645 36.6815 102.12 36.8242 102.568 37.0321C102.927 37.1924 103.245 37.4303 103.501 37.7287C103.742 38.0102 103.927 38.335 104.046 38.6857C104.181 39.0773 104.266 39.4843 104.3 39.897C104.343 40.3453 104.367 40.8359 104.367 41.3628V47.1411L102.611 47.1533ZM113.077 42.3986C113.749 42.3986 114.325 42.3986 114.797 42.3986C115.27 42.3986 115.669 42.4591 116.008 42.5076C116.267 42.5434 116.521 42.6085 116.766 42.7014C116.941 42.77 117.09 42.8932 117.19 43.0527C117.28 43.1953 117.344 43.3534 117.377 43.5191C117.403 43.6935 117.415 43.8697 117.414 44.046C117.415 44.2485 117.403 44.4509 117.377 44.6517C117.35 44.8258 117.284 44.9914 117.183 45.1363C117.064 45.2931 116.911 45.4214 116.735 45.5118C116.476 45.6302 116.203 45.7176 115.924 45.7723C115.504 45.8554 115.079 45.9081 114.652 45.9298C114.143 45.9661 113.525 45.9782 112.835 45.9782C112.144 45.9782 111.387 45.9782 110.866 45.9116C110.452 45.8846 110.044 45.7968 109.655 45.6511C109.385 45.5566 109.158 45.37 109.013 45.1242C108.877 44.8499 108.812 44.5458 108.825 44.2399H107.026C107.012 44.7187 107.111 45.1941 107.317 45.6269C107.536 46.0284 107.875 46.3522 108.286 46.5536C108.847 46.8239 109.448 46.9998 110.067 47.0745C110.97 47.1913 111.881 47.246 112.792 47.2381C113.658 47.2381 114.415 47.2381 115.064 47.1593C115.63 47.1201 116.192 47.0412 116.747 46.9231C117.152 46.8412 117.544 46.7026 117.91 46.5112C118.194 46.3604 118.446 46.1545 118.649 45.9055C118.828 45.6589 118.956 45.3788 119.025 45.0818C119.101 44.7358 119.138 44.3822 119.134 44.0279C119.139 43.6795 119.102 43.3318 119.025 42.9921C118.958 42.7092 118.83 42.4444 118.649 42.2169C118.448 41.9777 118.208 41.7731 117.941 41.6112C117.598 41.4055 117.22 41.2658 116.826 41.1993C116.299 41.0969 115.764 41.0341 115.227 41.0115C114.621 40.9691 113.895 40.951 113.077 40.951H111.357C110.884 40.951 110.491 40.951 110.145 40.8964C109.886 40.8738 109.63 40.823 109.382 40.745C109.215 40.6922 109.068 40.591 108.958 40.4543C108.857 40.3109 108.795 40.1441 108.776 39.9697C108.747 39.7692 108.732 39.5667 108.734 39.364C108.717 39.0706 108.8 38.7802 108.97 38.5403C109.175 38.3148 109.447 38.1618 109.746 38.1042C110.21 37.9899 110.685 37.9289 111.163 37.9225C111.748 37.8983 112.475 37.8861 113.343 37.8861C114.137 37.8861 114.791 37.8861 115.312 37.9528C115.725 37.9802 116.132 38.0616 116.523 38.195C116.785 38.2809 117.011 38.4513 117.165 38.6796C117.296 38.923 117.359 39.1971 117.347 39.4731H119.085C119.098 39.0092 119.009 38.5482 118.825 38.1224C118.627 37.7191 118.307 37.3885 117.91 37.1775C117.357 36.8922 116.759 36.7056 116.142 36.6263C115.207 36.4919 114.263 36.4311 113.319 36.4446C112.338 36.4374 111.357 36.4879 110.382 36.596C109.706 36.6626 109.044 36.8321 108.419 37.0987C107.97 37.2839 107.587 37.598 107.317 38.0012C107.096 38.4221 106.995 38.8958 107.026 39.3701C107.023 39.7424 107.06 40.1139 107.135 40.4785C107.193 40.7871 107.319 41.0788 107.505 41.3325C107.69 41.573 107.931 41.7643 108.207 41.8898C108.565 42.0439 108.942 42.1518 109.328 42.2108C109.857 42.2911 110.391 42.3396 110.927 42.3562C111.532 42.3562 112.265 42.3925 113.077 42.3925V42.3986ZM123.561 36.7353V42.4531C123.553 42.9958 123.601 43.5379 123.707 44.0703C123.782 44.474 123.981 44.8443 124.276 45.1302C124.621 45.4338 125.038 45.6425 125.488 45.7359C126.174 45.8667 126.872 45.9255 127.571 45.9116C128.344 45.9283 129.116 45.8592 129.873 45.7056C130.378 45.604 130.857 45.3977 131.278 45.1C131.597 44.8821 131.843 44.5742 131.987 44.2156C132.119 43.8402 132.184 43.4446 132.18 43.0467V36.7353H133.913V47.123H132.18V45.3059C132.07 45.539 131.928 45.7552 131.756 45.9479C131.509 46.2355 131.206 46.4703 130.866 46.6384C130.376 46.8695 129.859 47.0404 129.328 47.1472C128.56 47.2987 127.778 47.3678 126.996 47.3531C126.329 47.3599 125.662 47.3133 125.003 47.2138C124.516 47.1375 124.042 46.997 123.592 46.7959C123.238 46.6361 122.92 46.4052 122.659 46.1175C122.424 45.8377 122.241 45.5176 122.12 45.1726C121.985 44.7809 121.9 44.374 121.866 43.9613C121.829 43.5191 121.805 43.0406 121.805 42.5136V36.7414L123.561 36.7353ZM137.165 33.3132H138.904V47.123H137.165V33.3132ZM152.223 42.5379C152.239 43.2826 152.168 44.0266 152.011 44.7547C151.898 45.283 151.647 45.7721 151.284 46.172C150.916 46.5432 150.453 46.8052 149.945 46.9292C149.278 47.0932 148.592 47.1685 147.904 47.1533C147.239 47.1651 146.575 47.1042 145.924 46.9715C145.447 46.8823 145.001 46.6739 144.627 46.3659C144.282 46.0605 144.033 45.6603 143.913 45.215C143.752 44.6231 143.679 44.011 143.695 43.398V38.1587H141.575V36.7353H143.695V33.9189H145.433V36.7293H151.926V38.1587H145.433V43.3677C145.42 43.8154 145.463 44.263 145.56 44.7002C145.614 44.9811 145.759 45.2366 145.972 45.427C146.198 45.581 146.462 45.6672 146.735 45.6754C147.05 45.6754 147.432 45.7178 147.892 45.7178C148.25 45.7178 148.571 45.7178 148.861 45.7178C149.113 45.7049 149.362 45.6663 149.606 45.6027C149.805 45.5487 149.989 45.4515 150.145 45.318C150.31 45.1655 150.436 44.9768 150.515 44.7668C150.618 44.4814 150.685 44.1844 150.715 43.8825C150.76 43.4419 150.78 42.999 150.775 42.556L152.223 42.5379ZM155.481 36.7656H157.214V47.123H155.481V36.7353V36.7656ZM157.214 35.0454H155.481V33.3132H157.214V35.0454ZM170.806 47.123V41.3447C170.813 40.7983 170.767 40.2525 170.666 39.7153C170.589 39.3093 170.388 38.9371 170.091 38.6493C169.751 38.3393 169.331 38.1297 168.879 38.0436C168.194 37.9074 167.495 37.8465 166.796 37.8619C166.023 37.8452 165.251 37.9143 164.494 38.0679C163.989 38.1707 163.511 38.3769 163.089 38.6735C162.768 38.9 162.522 39.2161 162.38 39.5821C162.245 39.9713 162.179 40.3814 162.187 40.7935V47.123H160.454V36.7353H162.187V38.4555C162.311 38.165 162.497 37.9047 162.732 37.6923C162.968 37.4754 163.233 37.292 163.519 37.1472C163.826 36.9971 164.147 36.8754 164.476 36.7838C164.813 36.6932 165.155 36.6204 165.5 36.5657C165.845 36.5173 166.172 36.487 166.493 36.4628C166.814 36.4385 167.099 36.4628 167.371 36.4628C168.036 36.4549 168.701 36.5035 169.358 36.6081C169.848 36.6807 170.326 36.8235 170.775 37.0321C171.133 37.1941 171.451 37.4317 171.708 37.7287C171.944 38.0132 172.129 38.3372 172.253 38.6857C172.385 39.0781 172.471 39.4847 172.508 39.897C172.55 40.3453 172.568 40.8359 172.568 41.3628V47.123H170.806ZM181.278 37.8801C180.606 37.8801 180.024 37.8801 179.534 37.9407C179.111 37.9729 178.693 38.048 178.286 38.1648C177.978 38.2548 177.693 38.4097 177.45 38.619C177.231 38.8251 177.062 39.0776 176.953 39.358C176.827 39.7091 176.749 40.076 176.723 40.4482C176.681 40.8783 176.663 41.3749 176.663 41.9503C176.663 42.5258 176.663 43.0043 176.723 43.4282C176.749 43.7946 176.827 44.1555 176.953 44.5003C177.062 44.7807 177.231 45.0332 177.45 45.2393C177.693 45.4486 177.978 45.6035 178.286 45.6935C178.693 45.8103 179.111 45.8854 179.534 45.9176C180.024 45.96 180.606 45.9782 181.278 45.9782C181.853 45.9782 182.368 45.9782 182.816 45.9419C183.225 45.9205 183.631 45.8596 184.028 45.7602C184.34 45.6807 184.633 45.543 184.894 45.3543C185.153 45.1683 185.361 44.9205 185.5 44.6336C185.667 44.2839 185.778 43.9097 185.827 43.5252C185.906 42.9939 185.942 42.4571 185.936 41.9201C185.942 41.381 185.906 40.8422 185.827 40.3089C185.777 39.9224 185.667 39.5463 185.5 39.1944C185.361 38.9109 185.152 38.6671 184.894 38.4858C184.633 38.2991 184.339 38.1635 184.028 38.086C183.631 37.988 183.225 37.9312 182.816 37.9164C182.368 37.9164 181.853 37.8801 181.278 37.8801ZM187.626 45.6875C187.647 46.5381 187.532 47.3866 187.286 48.2011C187.079 48.835 186.697 49.3976 186.184 49.8244C185.608 50.2672 184.932 50.5625 184.216 50.6844C183.247 50.861 182.263 50.9422 181.278 50.9267C180.365 50.9363 179.453 50.8877 178.546 50.7814C177.933 50.719 177.333 50.5659 176.766 50.3271C176.37 50.164 176.032 49.8854 175.796 49.5276C175.588 49.1591 175.487 48.7393 175.506 48.3162H177.238C177.224 48.5343 177.291 48.7499 177.426 48.9219C177.599 49.1001 177.823 49.2207 178.068 49.2671C178.475 49.3676 178.891 49.4264 179.309 49.4428C179.83 49.4791 180.485 49.4912 181.278 49.4912C182.071 49.4912 182.871 49.4912 183.458 49.4004C183.961 49.364 184.449 49.2105 184.882 48.9522C185.254 48.6958 185.528 48.3196 185.657 47.8861C185.834 47.2641 185.914 46.6185 185.893 45.9722C185.785 46.151 185.65 46.3124 185.494 46.4507C185.252 46.6479 184.98 46.8053 184.688 46.917C184.25 47.0866 183.795 47.2085 183.331 47.2804C182.652 47.3871 181.965 47.4357 181.278 47.4258C180.29 47.4425 179.304 47.3552 178.334 47.1654C177.618 47.0376 176.944 46.736 176.372 46.2871C175.848 45.8454 175.465 45.2601 175.27 44.6033C175.019 43.7399 174.905 42.8428 174.93 41.9443C174.905 41.0378 175.02 40.1328 175.27 39.2611C175.467 38.5922 175.859 37.9975 176.396 37.553C176.969 37.1061 177.643 36.8066 178.359 36.6808C179.329 36.4963 180.315 36.411 181.302 36.4264C181.989 36.4178 182.675 36.4604 183.356 36.5536C183.817 36.6122 184.272 36.7177 184.712 36.8686C185.002 36.9592 185.275 37.0985 185.518 37.2805C185.67 37.393 185.805 37.5278 185.918 37.6802V36.7353H187.65V45.6875H187.626Z" fill="#E3730C" stroke="#E3730C" stroke-width="0.5" stroke-miterlimit="10"/>
<path fill-rule="evenodd" clip-rule="evenodd" d="M68.2557 19.2247C69.0831 19.2166 69.9103 19.257 70.7329 19.3459C71.3353 19.4062 71.93 19.528 72.5076 19.7093C72.9458 19.8335 73.3567 20.0389 73.719 20.315C74.019 20.5571 74.2664 20.8581 74.4458 21.1993C74.6173 21.5388 74.728 21.9058 74.7729 22.2835C74.8189 22.6856 74.8412 23.0901 74.8395 23.4949C74.8392 23.9017 74.7986 24.3074 74.7184 24.7062C74.6419 25.104 74.492 25.484 74.2762 25.8268C74.0496 26.1796 73.7577 26.4859 73.4162 26.7293C73.0087 27.0354 72.5575 27.2784 72.0776 27.45C71.4578 27.6434 70.8209 27.7773 70.1757 27.8498C69.327 27.9436 68.4735 27.9861 67.6197 27.977H65.318C64.5413 27.979 63.7649 27.9405 62.9922 27.8619C62.4065 27.8086 61.8268 27.7032 61.2599 27.5469C60.8156 27.4302 60.3925 27.2442 60.0061 26.9958C59.6836 26.7783 59.4059 26.5006 59.1884 26.1781C58.9746 25.8592 58.8264 25.5009 58.7523 25.1242C58.6745 24.7129 58.6359 24.2951 58.6372 23.8764V23.5615H61.0055V23.8764C60.9889 24.2699 61.0571 24.6624 61.2054 25.0273C61.3342 25.278 61.5493 25.4738 61.8111 25.5784C62.2319 25.7385 62.6756 25.8305 63.1254 25.851C63.8401 25.8995 64.5609 25.9055 65.2756 25.9055H67.5773C68.4012 25.9167 69.225 25.8701 70.0424 25.7662C70.5594 25.7058 71.0628 25.5605 71.5325 25.3362C71.8325 25.1864 72.0766 24.9444 72.229 24.6457C72.3799 24.294 72.4523 23.9137 72.441 23.5312C72.4611 23.1536 72.4202 22.7752 72.3199 22.4107C72.2285 22.1523 72.0452 21.9367 71.805 21.805C71.412 21.6027 70.9848 21.4754 70.5452 21.4294C69.7856 21.3376 69.0207 21.2971 68.2557 21.3083H65.8813C64.9667 21.3083 64.0643 21.3083 63.1315 21.1932C62.4723 21.1337 61.8197 21.0161 61.1812 20.8419C60.711 20.7132 60.265 20.5086 59.8607 20.2362C59.5371 20.0128 59.2663 19.7213 59.0673 19.3822C58.8966 19.0518 58.7897 18.6922 58.7523 18.3222C58.7008 17.9348 58.6765 17.5441 58.6796 17.1532C58.6792 16.7464 58.7198 16.3406 58.8008 15.9419C58.8785 15.5499 59.0374 15.1785 59.2672 14.8516C59.516 14.5047 59.8309 14.2103 60.1939 13.9855C60.6447 13.7148 61.1323 13.5108 61.6415 13.3798C62.3167 13.203 63.0056 13.0834 63.7008 13.0224C64.6215 12.9316 65.5603 12.9073 66.487 12.9073H68.2133C68.9816 12.9002 69.7498 12.9325 70.5149 13.0042C71.1002 13.0535 71.6799 13.1548 72.2472 13.3071C72.6875 13.4269 73.1078 13.6106 73.4949 13.8522C73.8253 14.0616 74.108 14.3382 74.3247 14.6638C74.535 14.9862 74.681 15.3461 74.7547 15.7238C74.8353 16.1347 74.8739 16.5528 74.8698 16.9715V17.2865H72.5016V16.9594C72.5211 16.5736 72.4528 16.1884 72.3017 15.8328C72.1688 15.5866 71.9548 15.394 71.696 15.2877C71.2753 15.1287 70.8312 15.0406 70.3816 15.0273C69.6669 14.9788 68.9401 14.9667 68.2254 14.9667H66.4991C65.5608 14.9555 64.6226 14.996 63.6887 15.0878C63.1181 15.1349 62.5572 15.2634 62.0231 15.4694C61.7142 15.5828 61.4521 15.7959 61.2781 16.0751C61.1214 16.408 61.0467 16.7735 61.06 17.1411C61.0569 17.3926 61.0751 17.6438 61.1145 17.8922C61.1432 18.0698 61.2138 18.2379 61.3205 18.3828C61.4347 18.5316 61.5819 18.6519 61.7505 18.7341C62.0194 18.8618 62.3048 18.9515 62.5985 19.0006C63.0486 19.0856 63.5039 19.1403 63.9613 19.1641C64.6154 19.2005 65.2696 19.2126 65.9237 19.2126L68.2557 19.2247ZM77.4622 13.1678H79.8305V27.6499H77.4622V13.1678ZM85.4028 22.1684V27.6196H83.0346V13.1678H93.7553C94.4961 13.1598 95.2367 13.2003 95.9722 13.2889C96.4976 13.3418 97.0144 13.4598 97.5107 13.6402C97.8892 13.7772 98.2326 13.9965 98.5161 14.2823C98.7546 14.5407 98.9325 14.849 99.037 15.1847C99.1479 15.5382 99.2111 15.9048 99.2248 16.275C99.2248 16.6929 99.2248 17.1108 99.2248 17.5227C99.2248 17.9346 99.2248 18.401 99.2248 18.8371C99.1967 19.2311 99.111 19.6188 98.9704 19.9879C98.834 20.3547 98.6167 20.686 98.3344 20.957C97.9813 21.2637 97.569 21.4946 97.123 21.6354C96.5194 21.8318 95.8957 21.9598 95.2635 22.017C94.3643 22.1129 93.4604 22.1573 92.5561 22.1502L85.4028 22.1684ZM85.4028 15.2453V20.0909H92.5742C93.2102 20.0909 93.8583 20.0909 94.4943 20.0545C94.9152 20.0367 95.3343 19.9881 95.7481 19.9092C95.988 19.8672 96.2181 19.7809 96.4265 19.6548C96.5606 19.5593 96.6637 19.4266 96.7232 19.2732C96.8036 19.0556 96.8485 18.8266 96.8565 18.5948C96.8565 18.2374 96.8565 17.8801 96.8565 17.5227C96.8565 17.1654 96.8565 16.8625 96.8565 16.5294C96.8481 16.3218 96.8051 16.1171 96.7293 15.9237C96.6685 15.7923 96.5692 15.6825 96.4446 15.6087C96.2295 15.4927 95.9959 15.4148 95.7541 15.3786C95.3392 15.3127 94.9204 15.2742 94.5004 15.2635C93.8583 15.2635 93.2163 15.2635 92.5742 15.2635L85.4028 15.2453Z" fill="#E3730C"/>
</svg>
